<?xml version="1.0" encoding="UTF-8"?>
<svg id="Capa_1" data-name="Capa 1" xmlns="http://www.w3.org/2000/svg" version="1.1" viewBox="0 0 153 76.9">
  <defs>
    <style>
      .cls-1 {
        isolation: isolate;
      }

      .cls-2 {
        fill: #252b4d;
        stroke-width: 0px;
      }
    </style>
  </defs>
  <g class="cls-1">
    <g class="cls-1">
      <path class="cls-2" d="M55.1,15.6c0,1.6,0,1.9.9,1.9s.6,0,.9,0,.5.2.5.4-.1.4-.5.4-1.8-.2-2.2-.2-1.8.2-2.3.2-.5-.2-.5-.4.2-.4.5-.4.6,0,.9,0c.8,0,.9-.2.9-1.9v-5.4c0-.5,0-.5-.6-.5h-5.9c-.6,0-.7,0-.7.7v5.3c0,1.6.1,1.9,1,1.9s.6,0,.8,0c.4,0,.5.2.5.4s-.1.4-.5.4-1.7-.2-2.2-.2-1.9.2-2.3.2-.5-.2-.5-.4.2-.4.5-.4.6,0,.9,0c.8,0,1-.1,1-1.9V4c0-1.3,0-1.9-1-1.9s-.6,0-.9,0-.5-.2-.5-.4.2-.4.5-.4,2,.2,2.3.2,2-.2,2.2-.2c.4,0,.5.2.5.4s-.1.4-.5.4-.6,0-.8,0c-.8,0-1,.2-1,1.9v4.5c0,.6,0,.7.7.7h5.8c.6,0,.7,0,.7-.7V4c0-1.3,0-1.9-1-1.9s-.6,0-.9,0-.5-.2-.5-.4.2-.4.5-.4,2,.2,2.3.2,2-.2,2.2-.2c.4,0,.5.2.5.4s-.2.4-.5.4-.6,0-.8,0c-.8,0-1,.2-1,1.9v11.7Z"/>
      <path class="cls-2" d="M67.2,10.8c0,.7,0,.8-.7.8h-6.6v.4c0,3,1.4,5.7,3.6,5.7s2.9-2.1,2.9-3.3c0-.7,0-1,.4-1s.3.2.3.5c0,1.9-1.4,4.4-3.7,4.4s-4.3-3.1-4.3-6.5,1.6-6.4,4.3-6.4,3.8,2.2,3.8,5.4ZM66.2,11c.2,0,.3,0,.3-.3,0-2.7-1.2-4.6-3.2-4.6s-3.2,1.7-3.4,4.9h6.3Z"/>
      <path class="cls-2" d="M77,9.2c0,1.2-.5,1.9-1.2,1.9s-.9-.4-.9-.9.2-.8.6-.8.5.3.6.3.2-.2.2-.4c0-2.1-1.3-3.2-2.8-3.2-2.1,0-3.6,2.5-3.6,5.8s1.4,5.9,3.6,5.9,2.8-1.6,2.9-2.9c0-.8.2-.9.4-.9s.3.1.3.4c0,2-1.4,4.1-3.6,4.1s-4.3-3.2-4.3-6.5,1.6-6.5,4.3-6.5,3.5,1.5,3.5,3.8Z"/>
      <path class="cls-2" d="M79.4.5c.3,0,.6,0,.9,0s.4.2.4.5v7.4h0c.6-1.8,1.7-2.8,3.3-2.8s3.2,1.6,3.2,4.5v5.8c0,1.5.1,1.8.7,1.8s.6,0,.9,0,.5,0,.5.3-.2.3-.5.3c-.6,0-1.4-.2-2-.2s-1.4.2-2.1.2-.5,0-.5-.3.2-.3.5-.3c.5,0,.8,0,1.1,0,.6,0,.7-.4.7-1.8v-5.5c0-2.6-.7-4.2-2.5-4.2s-3.3,2.4-3.3,4.9v4.8c0,1.5.1,1.8.7,1.8s.6,0,1,0,.5,0,.5.3-.2.3-.5.3c-.7,0-1.5-.2-2.1-.2s-1.4.2-2.1.2-.5,0-.5-.3.2-.3.5-.3c.4,0,.7,0,1,0,.6,0,.7-.3.7-1.8V2.1c0-.8-.3-1.1-.9-1.1s-.6,0-.9,0-.5,0-.5-.4.2-.4.5-.4c.4,0,.8,0,1.2,0Z"/>
      <path class="cls-2" d="M99.3,11.9c0,3.4-1.6,6.5-4.3,6.5s-4.3-3.1-4.3-6.5.5-3.3,1.1-4.4c.8-1.4,2-2.1,3.2-2.1,2.7,0,4.3,3,4.3,6.5ZM95,17.8c2.2,0,3.6-2.6,3.6-5.9s-1.4-5.8-3.6-5.8-3.6,2.5-3.6,5.8,1.5,5.9,3.6,5.9Z"/>
    </g>
    <g class="cls-1">
      <path class="cls-2" d="M66.2,29.4c0,4.2-1.7,6.7-3.9,6.7s-2.3-.8-2.9-2.2h0v4.3c0,1.4,0,1.8.7,1.8s.6,0,.9,0,.5,0,.5.3-.2.3-.5.3-1.6-.2-1.9-.2c-.6,0-1.4.2-2.1.2s-.5,0-.5-.3.2-.3.5-.3c.4,0,.8,0,1,0,.7,0,.7-.5.7-1.8v-13c0-.8-.3-1.1-.9-1.1s-.6,0-.8,0-.5,0-.5-.4.2-.4.5-.4c.3,0,.7,0,1.1,0s.6,0,.9,0,.4.2.4.6v1.8h0c.4-1.7,1.5-2.7,3-2.7,2.3,0,3.8,2.4,3.8,6.2ZM62.3,35.5c2,0,3.2-2.4,3.2-5.9s-1.1-5.8-3.1-5.8-3.1,1.9-3.1,5.9.9,5.8,3,5.8Z"/>
      <path class="cls-2" d="M76.8,29.6c0,3.4-1.6,6.5-4.3,6.5s-4.3-3.1-4.3-6.5.5-3.3,1.1-4.4c.8-1.4,2-2.1,3.2-2.1,2.7,0,4.3,3,4.3,6.5ZM72.5,35.5c2.2,0,3.6-2.6,3.6-5.9s-1.4-5.8-3.6-5.8-3.6,2.5-3.6,5.8,1.5,5.9,3.6,5.9Z"/>
      <path class="cls-2" d="M86.6,26.2c0,1.2-.5,2.1-1.2,2.1s-.8-.4-.8-.9.2-.7.6-.7.3.1.4.1.3-.4.3-.8c0-1.2-.8-2.2-1.8-2.2-1.9,0-2.7,2-2.7,5.7v3.3c0,2.3,0,2.5.7,2.5s.6,0,1,0,.5,0,.5.3-.2.3-.5.3c-.7,0-1.5-.2-2.1-.2s-1.4.2-2.1.2-.5,0-.5-.3.2-.3.5-.3c.4,0,.8,0,1,0,.6,0,.7-.3.7-1.8v-8.2c0-.8-.3-1.1-.9-1.1s-.5,0-.8,0-.5,0-.5-.4.2-.4.5-.4.7,0,1.1,0,.6,0,.9,0,.5.1.5.7,0,.9,0,1.3l.4-.7c.5-.8,1.2-1.6,2.3-1.6s2.5,1.3,2.5,3Z"/>
    </g>
  </g>
  <path class="cls-2" d="M61.6,67.3c-.2,0-.5.2-.6.4-.8,1.2-2.6,3.1-4.4,3.1s-1.7-.9-1.7-2c0-.6,0-1.1.2-1.7l2.3-12c.4-1.4.6-2.9.6-4.4,0-3.1-1.5-4.8-4.8-4.8-5.5,0-10.2,5.7-12.9,10.2l5.3-26.4.6-2.8c0,0,0-.2,0-.2,0-.3-.2-.6-.5-.7,0,0,0,0-.1,0-.1,0-.3,0-.4,0-2.8.8-5.5,1.8-8.1,2.9-.3.2-.6.4-.6.7s.2.5.6.5c.3,0,.5,0,.8-.1.5,0,.9-.1,1.4-.1,1,0,1.7.4,1.7,1.6,0,.9-.2,1.8-.4,2.7l-4.7,23.3c-1.5,7.6-7.9,13.1-15.6,13.6-.3,0-.6,0-.9,0-9.8,0-13.4-6.9-13.4-15.5,0-4.3,1-8.6,2.9-12.5,2.8-5.9,8.6-11.3,15.8-11.3s10.6,3.2,10.6,9.4,0,1.3,0,2,.1.9.6.9.7-.4.9-.9c.6-2.2,1.1-4.5,1.4-6.8,0-2.4-4.1-4.3-5.6-4.9-.2,0-.3-.1-.5-.2h0c-2.2-.8-4.6-1.2-6.9-1.1C9.9,30.1,0,43.6,0,56.8s5.9,17.9,17.8,17.9c6.3,0,12.4-2.8,16.3-7.8h0c3-3.4,5.6-7.1,8-10.9,0-.1.1-.2.2-.3,1.2-2.1,2.8-4,4.7-5.5,1.2-1,2.7-1.6,4.2-1.7.6,0,1.1.1,1.7.4,0,0,0,0,0,0,.8.6,1.2,1.5,1.1,2.5,0,.8-.1,1.5-.3,2.3l-2.7,14.2c-.1.7-.2,1.4-.2,2.1,0,2.6,1.2,3.9,3.1,3.9,3.2,0,6.5-3.1,7.9-5.5.1-.2.2-.4.2-.7,0-.2-.2-.4-.4-.4,0,0,0,0,0,0Z"/>
  <path class="cls-2" d="M67.6,42.2c-1.9,0-3.4,1.6-3.5,3.5,0,1.3.9,2.4,2.2,2.5,0,0,.1,0,.2,0,.6,0,1.2-.2,1.6-.6-.4,3.1-2.9,5.9-5.4,7.4-.4.2-.9.6-.9.9s.2.5.5.4c1-.3,1.9-.7,2.7-1.3,3.2-2.2,5.6-6.1,5.6-9.5,0-2-.8-3.4-2.9-3.4Z"/>
  <path class="cls-2" d="M136.4,70.9c.3,0,.6,0,.9-.2-.3,0-.6.1-.9.2Z"/>
  <path class="cls-2" d="M138.9,70.1c.3-.2.5-.3.7-.5-.2.2-.5.4-.7.5Z"/>
  <path class="cls-2" d="M140.4,68.8c.2-.3.4-.5.6-.8-.2.3-.4.5-.6.8Z"/>
  <path class="cls-2" d="M79.3,69.6c.2-.2.5-.4.7-.6-.2.2-.4.4-.7.6Z"/>
  <path class="cls-2" d="M81.8,65.8c-.4,1.2-1,2.3-1.9,3.2.8-.9,1.5-2,1.9-3.2Z"/>
  <path class="cls-2" d="M79.3,69.6c.2-.2.5-.4.7-.6-.2.2-.4.4-.7.6Z"/>
  <path class="cls-2" d="M81.8,65.8c-.4,1.2-1,2.3-1.9,3.2.8-.9,1.5-2,1.9-3.2Z"/>
  <path class="cls-2" d="M136.4,70.9c.3,0,.6,0,.9-.2-.3,0-.6.1-.9.2Z"/>
  <path class="cls-2" d="M138.9,70.1c.3-.2.5-.3.7-.5-.2.2-.5.4-.7.5Z"/>
  <path class="cls-2" d="M140.4,68.8c.2-.3.4-.5.6-.8-.2.3-.4.5-.6.8Z"/>
  <path class="cls-2" d="M79.3,69.6c.2-.2.5-.4.7-.6-.2.2-.4.4-.7.6Z"/>
  <path class="cls-2" d="M81.8,65.8c-.4,1.2-1,2.3-1.9,3.2.8-.9,1.5-2,1.9-3.2Z"/>
  <path class="cls-2" d="M136.4,70.9c.3,0,.6,0,.9-.2-.3,0-.6.1-.9.2Z"/>
  <path class="cls-2" d="M138.9,70.1c.3-.2.5-.3.7-.5-.2.2-.5.4-.7.5Z"/>
  <path class="cls-2" d="M140.4,68.8c.2-.3.4-.5.6-.8-.2.3-.4.5-.6.8Z"/>
  <path class="cls-2" d="M152.6,67.3c-.2,0-.4.2-.6.4-.7,1.1-2.6,3.1-4.3,3.1s-1.7-.9-1.7-2c0-.6,0-1.1.2-1.7l2.6-13c.2-1,.3-2.1.4-3.1,0-3.4-2.6-5.2-5.7-5.2s-11.5,4.6-11.5,8.3.6,1.4,1.5,1.4c1.5-.1,2.9-1,3.6-2.3-.5-.4-.8-.9-.8-1.5,0-2.2,2.8-4.1,5-4.1,4.3,0,3.9,3.8,3.4,6.8l-.7,3.7c-8.2,1.5-14.1,4.3-15.3,9.8,0,.4-.1.9-.1,1.3,0,.4,0,.7.1,1.1-.6.3-1.3.5-2,.6-1.7,0-2.9-1-4-3.1-2-3.8-3.4-7.9-4.1-12.2,2.3-2.1,5.8-5.1,8.8-6.5,1.3-.6,2.6-.9,4-1.2.5-.1.7-.4.7-.7s-.2-.6-.7-.6h-11.3c-.3,0-.6.3-.6.6,0,.3.2.6.6.6.9,0,2.1.1,2.1,1.2s-.9,2-2.3,3.3c-2.5,2.3-5.2,4.2-8.1,5.9l3.7-18.3c1.1.2,2.3.3,3.4.2,5.5,0,9.8-3.4,9.8-9.1s-2-6.1-5.7-6.1c-2.4,0-4.8.9-6.5,2.6-2,2.1-3.4,4.7-4,7.5-1.5-.7-3.2-1.5-5.2-2.6-1.8-1-3.8-1.5-5.9-1.5-3,0-5.8,1.3-7.6,3.6h0c-.9,1.1-1.4,2.4-1.6,3.8,0,0,0,0,0,0,0,.2,0,.3,0,.5,0,.5,0,1-.1,1.5,0,1,.1,2,.3,3,0,0,0,0,0,0,.3,1.5.8,2.9,1.7,4.2.3-.2.5-.4.8-.6-.3-.5-.6-1.1-.8-1.7-.1-.4-.2-.8-.3-1.3-.2-1.6-.2-3.2.2-4.7.1-.5.3-.9.6-1.4.3-.5.6-.9,1-1.2h0c1.3-1.3,3.1-1.9,4.9-1.9,1.8,0,3.5.5,5.1,1.3,2.4,1.2,4.2,2.1,5.9,2.8l-2.3,11.7-2.4,12.1c-1.1-2.6-3.5-4.3-6-5.9-1.9-1.2-4.8-2.8-4.8-5.4s2.3-4.6,5.4-4.6,4,1.3,4,4.1,0,1.3-.1,1.9h0c0,.3.2.6.4.6,0,0,0,0,0,0,.4,0,.6-.4.7-.6.4-1,1.7-4.5,1.7-5.8s-4.8-1.6-5.8-1.6c-1.2,0-2.4.2-3.5.5-2.7.6-5,2.4-6.2,5-.4.9-.6,1.8-.6,2.7,0,3.5,2.5,5.1,5.1,6.9,3,1.9,5.9,3.8,5.9,7.7s-3.5,7.1-7.7,7.1-6.9-2.7-6.9-5.8,1.7-5.7,4.6-5.7c.9,0,1.7.2,2.3.8h-.3c-1.3,0-2.4,1.2-2.3,2.5,0,0,0,0,0,0,0,1.2,1,2.3,2.2,2.3,0,0,0,0,.1,0,1.6,0,2.9-1.3,2.9-2.9,0,0,0,0,0-.1,0-2.6-3-3.9-5.3-3.9-4,0-7.2,2.6-7.2,6.8s0,.2,0,.4c-.2-.4-.3-.8-.3-1.2,0-.6,0-1.1.2-1.7l2.6-13c.2-1,.3-2.1.4-3.1,0-3.4-2.6-5.2-5.8-5.2s-11.5,4.6-11.5,8.3.6,1.4,1.5,1.4c1.5-.1,2.9-1,3.6-2.3-.5-.4-.8-.9-.8-1.5,0-2.2,2.8-4.1,5-4.1,4.3,0,3.9,3.8,3.4,6.8l-.7,3.7c-8.2,1.5-14.1,4.3-15.3,9.8,0,.4-.1.9-.1,1.3-.2,2.5,1.7,4.6,4.1,4.8.2,0,.3,0,.5,0,2.5,0,5-1,6.7-2.9.8-.7,1.4-1.6,2-2.4v1.1c0,2.6,1.1,4,3.1,4,.8,0,1.7-.2,2.4-.5,1.6,2.4,4.8,3.6,8,3.6,3.8,0,7.4-1.5,9.9-4.3,0,.5.4.9.9.9,0,0,0,0,0,0h1.8c.7,0,1.2-.5,1.3-1.2.9-4.5,2.2-10.8,2.2-10.8l3.7-3c.9,3.9,2.3,7.6,4,11.2,1.2,2.4,2.8,4.3,4.9,4.3,2-.1,3.9-.9,5.5-2.1.8,1.4,2.4,2.2,4,2.1,2.5,0,5-1,6.7-2.9.8-.7,1.4-1.6,2-2.4v1.1c0,2.6,1.1,4,3.1,4,3.2,0,6.5-3.1,7.9-5.6.1-.2.2-.4.2-.7,0-.2-.2-.3-.4-.3h0ZM116.3,36.1c.3-2.1,1-4.1,1.8-5.9,1.3-2.4,3-3.5,4.9-3.5s4,1.7,4,4.2c0,4.2-2.5,7-6.9,7-1.4,0-2.8-.3-4.1-.7l.2-1ZM83.1,59.8l-1,4.8c0,.4-.2.8-.3,1.2,0,.2-.1.4-.2.5,0,.1,0,.2-.1.3,0,.1-.1.3-.2.4-.1.3-.3.5-.5.8-.2.3-.3.5-.5.7-.1.1-.2.2-.3.3h0c-.2.2-.4.4-.7.6-.2.1-.3.2-.5.4-1,.6-2.1,1-3.2,1-.8,0-1.6-.2-2.3-.8,0,0-.1-.1-.2-.2-.5-.6-.7-1.4-.7-2.2,0-.9.1-1.8.5-2.7.2-.5.5-1,.8-1.4.2-.2.4-.4.5-.6.2-.2.4-.4.6-.6.1,0,.2-.2.3-.3.7-.5,1.5-1,2.4-1.3h0c.3-.1.6-.2.9-.3s.6-.2,1-.3.7-.2,1-.2c.9-.2,1.8-.3,2.7-.3h0ZM143.5,59.8l-1,4.8c0,.4-.2.8-.3,1.2,0,.2-.1.3-.2.5s-.1.3-.2.5-.1.3-.2.4c0,0,0,0,0,0v.2c-.2,0-.2.1-.2.2,0,0,0,0,0,0,0,.1-.2.3-.3.4-.2.3-.4.5-.6.8-.1.1-.2.2-.3.3,0,0,0,0,0,0-.1.1-.3.3-.4.4h0c-.2.2-.5.4-.7.5h0c-.2.1-.3.2-.5.3h0c-.2,0-.4.2-.6.2-.1,0-.3,0-.4.1-.3,0-.6.1-.9.2-.2,0-.3,0-.5,0h0c-1.6.2-3-1-3.2-2.6,0-.2,0-.4,0-.6h0c0-.2,0-.4,0-.6,0-.1,0-.2,0-.3,0,0,0-.1,0-.2,0-.1,0-.2,0-.4,0-.1,0-.2,0-.3h0c0,0,0-.2,0-.2,0,0,0-.2,0-.3,0,0,0,0,0,0,0-.1,0-.2.1-.4,0-.1.1-.3.2-.4,0,0,0,0,0,0,0,0,0-.2.1-.3,0-.1.2-.3.2-.4,0-.1.2-.2.2-.3,0,0,.1-.2.2-.2.1-.1.2-.2.3-.4.2-.2.4-.4.6-.6.1,0,.2-.2.3-.3,0,0,.2-.1.3-.2h0c.1-.1.2-.2.4-.3.3-.2.5-.3.8-.4.1,0,.3-.1.4-.2,0,0,0,0,0,0,.1,0,.3-.1.4-.2.3-.1.6-.2.9-.3s.6-.2,1-.3.7-.2,1-.2.7-.1,1-.2c.2,0,.3,0,.5,0s.4,0,.5,0,.4,0,.5,0h0Z"/>
</svg>